{"title":"The Wee Man 2013 BRRip 720p x264 AAC - PRiSTiNE [P2PDL]","uid":8656017,"size":637020856,"categoryP":"video","categoryS":"hd___movies","magnet":"?xt=urn:btih:dd9d289f88efb96f29ca9e9105e1e2a70e5ec2ee&amp;dn=The+Wee+Man+2013+BRRip+720p+x264+AAC+-+PRiSTiNE+%5BP2PDL%5D&amp;tr=udp%3A%2F%2Ftracker.openbittorrent.com%3A80&amp;tr=udp%3A%2F%2Fopen.demonii.com%3A1337&amp;tr=udp%3A%2F%2Ftracker.coppersurfer.tk%3A6969&amp;tr=udp%3A%2F%2Fexodus.desync.com%3A6969","seeders":2,"leechers":3,"uploader":"ValidusVyto","files":-1,"time":1373220050,"description":"_______ Visit us at our Semi Public Bittorrent Community ________\n  &lt;a href=&quot;\nhttp://p2pdl.com&quot; rel=&quot;nofollow&quot; target=&quot;_NEW&quot;&gt;\nhttp://p2pdl.com&lt;/a&gt;  _____________________________ &lt;a href=&quot; http://p2pdl.com&quot; rel=&quot;nofollow&quot; target=&quot;_NEW&quot;&gt; http://p2pdl.com&lt;/a&gt;\n\n\nThe Wee Man 2013 BRRip 720p x264 AAC - PRiSTiNE\n\n\nGenre: Crime, Drama\nPlot: The true-life story of Paul Ferris.\nDirector: Ray Burdis\nStars: Martin Compston, Patrick Bergin &amp; Hannah Blamires.\nRated: N/a\n\n\nInfo: &lt;a href=&quot;\nhttp://www.imdb.com/title/tt2113809/&quot; rel=&quot;nofollow&quot; target=&quot;_NEW&quot;&gt;\nhttp://www.imdb.com/title/tt2113809/&lt;/a&gt;\n\nTrailer:\n\n\nFormat                         : MPEG-4\nFile size                      : 600 MiB\nDuration                       : 1h 41mn\nOverall bit rate               : 828 Kbps\nSource                         : 720p.BluRay.x264-HDWinG\n\nVideo\nFormat                         : AVC\nBit rate                       : 748 Kbps\nWidth                          : 1 280 pixels\nHeight                         : 720 pixels\nDisplay aspect ratio           : 16:9\nFrame rate mode                : Constant\nFrame rate                     : 25.000 fps\nStream size                    : 539 MiB (90%)\nWriting library                : x264 core 130 r2273\n\nAudio\nFormat                         : AAC\nBit rate mode                  : Variable\nBit rate                       : 80.0 Kbps\nChannel(s)                     : 2 channels\nChannel positions              : Front: L R\nSampling rate                  : 48.0 KHz\nStream size                    : 58.0 MiB (10%)\nLanguage                       : English\n\nSubtitle                       : N/a\n &lt;a href=&quot;\nhttp://ultraimg.com/images/EGh8.png&quot; rel=&quot;nofollow&quot; target=&quot;_NEW&quot;&gt;\nhttp://ultraimg.com/images/EGh8.png&lt;/a&gt; &lt;a href=&quot;\nhttp://ultraimg.com/images/Nfu1w.png&quot; rel=&quot;nofollow&quot; target=&quot;_NEW&quot;&gt;\nhttp://ultraimg.com/images/Nfu1w.png&lt;/a&gt; &lt;a href=&quot;\nhttp://ultraimg.com/images/qVDhE.png&quot; rel=&quot;nofollow&quot; target=&quot;_NEW&quot;&gt;\nhttp://ultraimg.com/images/qVDhE.png&lt;/a&gt; &lt;a href=&quot;\nhttp://ultraimg.com/images/amz5e.png&quot; rel=&quot;nofollow&quot; target=&quot;_NEW&quot;&gt;\nhttp://ultraimg.com/images/amz5e.png&lt;/a&gt; &lt;a href=&quot;\nhttp://ultraimg.com/images/Abi63.png&quot; rel=&quot;nofollow&quot; target=&quot;_NEW&quot;&gt;\nhttp://ultraimg.com/images/Abi63.png&lt;/a&gt; &lt;a href=&quot;\nhttp://ultraimg.com/images/6yhYP.png&quot; rel=&quot;nofollow&quot; target=&quot;_NEW&quot;&gt;\nhttp://ultraimg.com/images/6yhYP.png&lt;/a&gt; &lt;a href=&quot;\nhttp://ultraimg.com/images/qQib.png&quot; rel=&quot;nofollow&quot; target=&quot;_NEW&quot;&gt;\nhttp://ultraimg.com/images/qQib.png&lt;/a&gt; &lt;a href=&quot;\nhttp://ultraimg.com/images/wa9lS.png&quot; rel=&quot;nofollow&quot; target=&quot;_NEW&quot;&gt;\nhttp://ultraimg.com/images/wa9lS.png&lt;/a&gt;\n\n\n----------------------------------------------------------------------------------------------------\n\n\nEncoded using revolutionary 10bit encoding, which enables us to provide you more crispier \nand sharper images at small sizes, just make sure you follow our instructions without a fault.\nRecommend to you to use latest version of VLC player. Install K-Lite Codec Pack or shark007 codecs\nin case of any kind of problem in playback (For non-VLC Media Player users). Alternatively, install\nCore AVC codecs, the fastest decoder that there is coupled with Community Center Codec Pack and play\non Windows Media Player Classic. Check sample to be sure.\nEnjoy!\n\nEncoder Notes:Looking For Early Access To Anything You Can Provide DVDScr, R5, DVDR, BluRay, Direct\nAudio, Music Releases and Seedboxes. We require dedicated servers, so as to do more \nand fast releases of movies.\nIf You Got anything to offer please contact us at &quot;&lt;a class=&quot;__cf_email__&quot; href=&quot;/cdn-cgi/l/email-protection&quot; data-cfemail=&quot;1b6b697c5b736e687335787476&quot;&gt;[email&amp;#160;protected]&lt;/a&gt;&lt;script cf-hash='f9e31' type=&quot;text/javascript&quot;&gt;\n/* &lt;![CDATA[ */!function(){try{var t=&quot;currentScript&quot;in document?document.currentScript:function(){for(var t=document.getElementsByTagName(&quot;script&quot;),e=t.length;e--;)if(t[e].getAttribute(&quot;cf-hash&quot;))return t[e]}();if(t&amp;&amp;t.previousSibling){var e,r,n,i,c=t.previousSibling,a=c.getAttribute(&quot;data-cfemail&quot;);if(a){for(e=&quot;&quot;,r=parseInt(a.substr(0,2),16),n=2;a.length-n;n+=2)i=parseInt(a.substr(n,2),16)^r,e+=String.fromCharCode(i);e=document.createTextNode(e),c.parentNode.replaceChild(e,c)}}}catch(u){}}();/* ]]&gt; */&lt;/script&gt;&quot;.\n\nFace book Fan Page:   &lt;a href=&quot;\nhttp://fbl.me/BC&quot; rel=&quot;nofollow&quot; target=&quot;_NEW&quot;&gt;\nhttp://fbl.me/BC&lt;/a&gt;","torrent":{"xt":"urn:btih:dd9d289f88efb96f29ca9e9105e1e2a70e5ec2ee","amp;dn":"The+Wee+Man+2013+BRRip+720p+x264+AAC+-+PRiSTiNE+%5BP2PDL%5D","amp;tr":["udp%3A%2F%2Ftracker.openbittorrent.com%3A80","udp%3A%2F%2Fopen.demonii.com%3A1337","udp%3A%2F%2Ftracker.coppersurfer.tk%3A6969","udp%3A%2F%2Fexodus.desync.com%3A6969"],"infoHash":"dd9d289f88efb96f29ca9e9105e1e2a70e5ec2ee","infoHashBuffer":{"type":"Buffer","data":[221,157,40,159,136,239,185,111,41,202,158,145,5,225,226,167,14,94,194,238]},"announce":[],"urlList":[]}}